<svg width="24" height="24" viewBox="0 0 24 24" fill="none" xmlns="http://www.w3.org/2000/svg">
<path d="M17.0059 20.9904L7.01117 20.9999C4.81233 21.0019 3.01178 19.2048 3.00928 17.006L2.99979 7.01128C2.99779 4.81244 4.79484 3.01189 6.99368 3.00939L16.9884 2.99989C19.1872 2.9979 20.9878 4.79495 20.9903 6.99379L20.9998 16.9885C21.0023 19.1878 19.2047 20.9884 17.0059 20.9904Z" fill="url(#paint0_radial_2_1812)"/>
<path d="M17.0083 20.995L7.00834 21.0045C4.80834 21.0065 3.00684 19.2085 3.00434 17.0085L2.99484 7.00846C2.99284 4.80846 4.79084 3.00696 6.99084 3.00446L16.9908 2.99496C19.1908 2.99296 20.9923 4.79096 20.9948 6.99096L21.0043 16.991C21.0068 19.1915 19.2083 20.993 17.0083 20.995Z" fill="url(#paint1_radial_2_1812)"/>
<path d="M11.9999 15.4999C10.0704 15.4999 8.49994 13.9299 8.49994 11.9999C8.49994 10.0699 10.0704 8.49991 11.9999 8.49991C13.9294 8.49991 15.4999 10.0699 15.4999 11.9999C15.4999 13.9299 13.9294 15.4999 11.9999 15.4999ZM11.9999 9.49991C10.6214 9.49991 9.49994 10.6214 9.49994 11.9999C9.49994 13.3784 10.6214 14.4999 11.9999 14.4999C13.3784 14.4999 14.4999 13.3784 14.4999 11.9999C14.4999 10.6214 13.3784 9.49991 11.9999 9.49991Z" fill="white"/>
<path d="M15.75 9C16.1642 9 16.5 8.66421 16.5 8.25C16.5 7.83579 16.1642 7.5 15.75 7.5C15.3358 7.5 15 7.83579 15 8.25C15 8.66421 15.3358 9 15.75 9Z" fill="white"/>
<path d="M14.9999 18.4999H8.99994C7.07044 18.4999 5.49994 16.9299 5.49994 14.9999V8.99992C5.49994 7.06992 7.07044 5.49992 8.99994 5.49992H14.9999C16.9294 5.49992 18.4999 7.06992 18.4999 8.99992V14.9999C18.4999 16.9299 16.9294 18.4999 14.9999 18.4999ZM8.99994 6.49992C7.62144 6.49992 6.49994 7.62142 6.49994 8.99992V14.9999C6.49994 16.3784 7.62144 17.4999 8.99994 17.4999H14.9999C16.3784 17.4999 17.4999 16.3784 17.4999 14.9999V8.99992C17.4999 7.62142 16.3784 6.49992 14.9999 6.49992H8.99994Z" fill="white"/>
<defs>
<radialGradient id="paint0_radial_2_1812" cx="0" cy="0" r="1" gradientUnits="userSpaceOnUse" gradientTransform="translate(9.69126 21.0129) scale(22.4377)">
<stop stop-color="#FFDD55"/>
<stop offset="0.328" stop-color="#FF543F"/>
<stop offset="0.348" stop-color="#FC5245"/>
<stop offset="0.504" stop-color="#E64771"/>
<stop offset="0.643" stop-color="#D53E91"/>
<stop offset="0.761" stop-color="#CC39A4"/>
<stop offset="0.841" stop-color="#C837AB"/>
</radialGradient>
<radialGradient id="paint1_radial_2_1812" cx="0" cy="0" r="1" gradientUnits="userSpaceOnUse" gradientTransform="translate(5.89284 2.77011) scale(14.9065 9.9322)">
<stop stop-color="#4168C9"/>
<stop offset="0.999" stop-color="#4168C9" stop-opacity="0"/>
</radialGradient>
</defs>
</svg>
