<svg width="24" height="24" viewBox="0 0 24 24" fill="none" xmlns="http://www.w3.org/2000/svg">
<rect x="3.00006" y="2.99994" width="18" height="18" rx="4" fill="url(#paint0_linear_2_1796)"/>
<path d="M18.2745 12.0843C18.2465 11.3256 17.6094 10.733 16.8484 10.7588C16.5111 10.7705 16.1903 10.9087 15.9467 11.1405C14.874 10.4099 13.614 10.0093 12.3188 9.98129L12.9301 7.04203L14.9466 7.46597C15.0028 7.98356 15.4666 8.35819 15.9842 8.30203C16.5018 8.24572 16.8764 7.7821 16.8202 7.2645C16.7639 6.74691 16.3003 6.37214 15.7827 6.42845C15.4852 6.45893 15.2183 6.63224 15.0706 6.88973L12.7615 6.42845C12.6046 6.39329 12.4477 6.49162 12.4125 6.65092V6.65559L11.7169 9.92498C10.4054 9.94613 9.1291 10.3489 8.04228 11.0843C7.48967 10.5644 6.61845 10.5902 6.09852 11.1453C5.57859 11.6979 5.60428 12.5691 6.15936 13.089C6.26703 13.1898 6.39117 13.2765 6.52932 13.3373C6.51999 13.4755 6.51999 13.6136 6.52932 13.7519C6.52932 15.862 8.98848 17.5787 12.0214 17.5787C15.0543 17.5787 17.5135 15.8643 17.5135 13.7519C17.5228 13.6136 17.5228 13.4755 17.5135 13.3373C17.9866 13.1009 18.284 12.6137 18.2745 12.0843V12.0843ZM8.85266 13.0282C8.85266 12.5083 9.27659 12.0843 9.79652 12.0843C10.3164 12.0843 10.7404 12.5083 10.7404 13.0282C10.7404 13.5481 10.3164 13.9721 9.79652 13.9721C9.27426 13.9674 8.85266 13.5481 8.85266 13.0282ZM14.3259 15.6185C13.6562 16.122 12.8364 16.3796 11.998 16.3446C11.1595 16.3796 10.3398 16.122 9.67004 15.6185C9.58105 15.5107 9.59739 15.3492 9.7052 15.2601C9.79886 15.1829 9.93234 15.1829 10.0283 15.2601C10.5951 15.6747 11.286 15.8855 11.9886 15.8527C12.6911 15.8901 13.3845 15.6887 13.9583 15.2789C14.0613 15.1782 14.2299 15.1806 14.3306 15.2836C14.4314 15.3867 14.429 15.5552 14.3259 15.656V15.6185ZM14.1573 14.0049C13.6373 14.0049 13.2135 13.581 13.2135 13.061C13.2135 12.5411 13.6373 12.1172 14.1573 12.1172C14.6772 12.1172 15.1011 12.5411 15.1011 13.061C15.1223 13.581 14.717 14.0189 14.1971 14.0399C14.1808 14.0399 14.1667 14.0399 14.1503 14.0399L14.1573 14.0049Z" fill="white"/>
<defs>
<linearGradient id="paint0_linear_2_1796" x1="12.0001" y1="2.99994" x2="12.0001" y2="20.9999" gradientUnits="userSpaceOnUse">
<stop stop-color="#FF4501"/>
<stop offset="1" stop-color="#EF3E01"/>
</linearGradient>
</defs>
</svg>
