<svg width="24" height="24" viewBox="0 0 24 24" fill="none" xmlns="http://www.w3.org/2000/svg">
<path d="M17.0092 21H6.99082C4.78672 21 3 19.2133 3 17.0092V6.99082C3 4.78672 4.78672 3 6.99082 3H17.0092C19.2133 3 21.0001 4.78672 21.0001 6.99082V17.0092C21 19.2133 19.2133 21 17.0092 21Z" fill="#41A0D7"/>
<path d="M11.8438 6.93748C8.8247 6.93748 6.37717 9.19169 6.37717 11.9723C6.37717 13.4386 7.05797 14.7583 8.14407 15.6785L8.28723 17.7066C8.29143 17.7658 8.32575 17.8187 8.37821 17.8466C8.43067 17.8745 8.49371 17.8735 8.54516 17.844L10.3389 16.8138C10.817 16.9397 11.3218 17.0072 11.8438 17.0072C14.8629 17.0072 17.3105 14.7529 17.3105 11.9723C17.3104 9.19163 14.8629 6.93742 11.8438 6.93748Z" fill="white"/>
<path d="M7.80443 19.4597L7.53922 18.5699L7.90901 18.4597L8.03739 18.8905L8.43098 18.6733L8.61742 19.0112L7.80443 19.4597Z" fill="#C8E6EB"/>
<path d="M9.10781 18.7407L8.92137 18.4029L10.126 17.7382L10.1984 17.7552C10.2295 17.7626 10.2608 17.7697 10.2921 17.7766L10.2265 18.074L10.2474 18.112L10.2139 18.1304L10.2089 18.1534C10.2001 18.1515 10.1915 18.1496 10.1828 18.1477L9.10781 18.7407ZM11.844 18.3308C11.4858 18.3308 11.1259 18.3055 10.7744 18.2558L10.8285 17.8737C11.2748 17.9369 11.737 17.9581 12.1889 17.9368L12.2071 18.3222C12.0871 18.3278 11.9648 18.3308 11.844 18.3308ZM12.7794 18.2735L12.7323 17.8906C13.1847 17.8348 13.6316 17.7354 14.0604 17.5953L14.1803 17.9621C13.7279 18.1099 13.2565 18.2147 12.7794 18.2735ZM7.3759 18.0222L6.97604 16.6802L7.34583 16.57L7.74569 17.9119L7.3759 18.0222ZM14.7194 17.7623L14.5711 17.406C14.992 17.2308 15.3945 17.0137 15.7677 16.7607L15.9842 17.0802C15.5896 17.3477 15.1641 17.5771 14.7194 17.7623ZM16.4473 16.7374L16.2051 16.437C16.5608 16.1503 16.8838 15.8278 17.1649 15.4786L17.4655 15.7206C17.167 16.0913 16.8244 16.4334 16.4473 16.7374ZM6.74789 16.2989C6.40144 15.9595 6.0943 15.585 5.83502 15.1858L6.15868 14.9757C6.40256 15.3512 6.69162 15.7037 7.01792 16.0233L6.74789 16.2989ZM17.8072 15.2557L17.4863 15.0413C17.7393 14.6625 17.9469 14.2578 18.1034 13.8387L18.4649 13.9735C18.2981 14.4207 18.0767 14.852 17.8072 15.2557ZM5.54293 14.6876C5.31708 14.2584 5.14313 13.8053 5.02578 13.341L5.39994 13.2464C5.50979 13.6813 5.67283 14.1057 5.88446 14.5079L5.54293 14.6876ZM18.6409 13.4231L18.2681 13.3233C18.3846 12.8882 18.4484 12.4387 18.4578 11.9871L18.8436 11.9951C18.8335 12.4778 18.7653 12.9582 18.6409 13.4231ZM4.91129 12.7739C4.86594 12.4758 4.84293 12.1709 4.84293 11.8676C4.84293 11.689 4.85093 11.5086 4.86661 11.3316L5.25102 11.3657C5.23629 11.5315 5.22879 11.7003 5.22879 11.8676C5.22879 12.1516 5.25029 12.437 5.29273 12.7159L4.91129 12.7739ZM18.4434 11.446C18.4099 10.9965 18.322 10.5508 18.182 10.1214L18.5489 10.0018C18.6984 10.4607 18.7925 10.937 18.8283 11.4174L18.4434 11.446ZM5.32486 10.8299L4.94561 10.7588C5.0339 10.2873 5.17969 9.82444 5.37889 9.38309L5.7306 9.54182C5.54405 9.95511 5.40756 10.3885 5.32486 10.8299ZM17.9898 9.6151C17.8115 9.20483 17.5831 8.81118 17.3111 8.44519L17.6208 8.21497C17.9103 8.60459 18.1535 9.02388 18.3436 9.46114L17.9898 9.6151ZM5.97628 9.05887L5.64086 8.86818C5.87617 8.45421 6.16143 8.06257 6.48861 7.70414L6.77359 7.96432C6.46577 8.30153 6.19743 8.66981 5.97628 9.05887ZM16.9684 8.02434C16.6703 7.68931 16.3325 7.38261 15.9642 7.11286L16.1921 6.80163C16.5824 7.08739 16.9405 7.41251 17.2567 7.76786L16.9684 8.02434ZM7.15699 7.57913L6.89536 7.29549C7.24534 6.97267 7.6331 6.68338 8.04797 6.43581L8.24572 6.76725C7.85369 7.00111 7.48737 7.27427 7.15699 7.57913ZM15.5125 6.80969C15.1282 6.57399 14.7164 6.37506 14.2884 6.21863L14.4209 5.85623C14.873 6.02145 15.3081 6.23162 15.7142 6.48077L15.5125 6.80969ZM8.72396 6.5073L8.55353 6.16119C8.98105 5.95068 9.43337 5.78109 9.89795 5.65731L9.99733 6.03018C9.55727 6.14742 9.1288 6.30799 8.72396 6.5073ZM13.7699 6.05179C13.3352 5.93052 12.8844 5.85041 12.43 5.81368L12.461 5.42905C12.94 5.46768 13.4153 5.55216 13.8736 5.68009L13.7699 6.05179ZM10.529 5.91026L10.4587 5.53083C10.9117 5.44685 11.3778 5.40424 11.844 5.40424L11.8869 5.40436L11.8854 5.79022L11.8441 5.79011C11.4012 5.79016 10.9588 5.83064 10.529 5.91026Z" fill="#C8E6EB"/>
</svg>
